<svg width="95" height="18" viewBox="0 0 95 18" fill="none" xmlns="http://www.w3.org/2000/svg">
<path d="M0 0.508224V17.5209H17.0162V0.508224H0ZM11.7791 12.2848H5.23714V5.74426H11.7791V12.2848Z" fill="white"/>
<path d="M28.8005 5.7441H22.254V12.2892H28.8005V5.7441Z" fill="white"/>
<path d="M34.0314 0.508643H43.5137C46.9947 0.508643 48.5855 2.82733 48.5855 4.94945C48.5855 6.47737 47.9956 7.46024 46.4227 8.38057C48.4067 9.11326 49.4881 10.4401 49.4881 12.4818C49.4881 14.9256 47.7007 17.5213 43.5271 17.5213H34.0269L34.0314 0.508643ZM39.2104 13.6881H42.6423C42.87 13.708 43.0993 13.6802 43.3156 13.6065C43.5319 13.5328 43.7305 13.4149 43.8987 13.2602C44.0668 13.1055 44.2009 12.9174 44.2924 12.708C44.3838 12.4986 44.4306 12.2725 44.4297 12.044C44.4232 11.8431 44.3758 11.6457 44.2902 11.4638C44.2046 11.282 44.0828 11.1195 43.9321 10.9865C43.7814 10.8534 43.6052 10.7526 43.4141 10.6901C43.223 10.6277 43.0212 10.6049 42.821 10.6233H39.2104V13.6881ZM39.2104 7.21453H41.9675C43.2277 7.21453 43.7281 6.62927 43.7281 5.76702C43.7349 5.58557 43.7025 5.40478 43.6334 5.23689C43.5642 5.06899 43.4598 4.9179 43.3272 4.79381C43.1946 4.66972 43.037 4.57552 42.8648 4.51759C42.6927 4.45966 42.5101 4.43934 42.3295 4.45801H39.2462L39.2104 7.21453Z" fill="white"/>
<path d="M54.886 0.508643H60.3689L66.6249 17.4856H60.9811L60.1544 14.9435H54.886L54.1889 17.4722H48.63L54.886 0.508643ZM57.4018 5.55257L55.9585 11.2264H59.0507L57.4018 5.55257Z" fill="white"/>
<path d="M75.3529 5.56217H80.5811C80.5811 2.6761 78.4094 0 73.2571 0C67.6044 0 65.8572 3.12733 65.8572 5.40134C65.8572 9.07818 70.3615 10.0566 70.5 10.1013C71.1703 10.3157 73.9676 11.0618 74.6647 11.312C75.2724 11.5264 75.8489 12.0134 75.8489 12.6523C75.8489 13.6441 74.6647 14.1221 73.6816 14.1221C73.0471 14.1221 70.9201 13.9121 70.9201 11.6605H65.5221C65.5221 14.6493 67.5821 18 73.3554 18C79.7321 18 81.0637 14.1981 81.0637 12.1921C81.0518 11.2385 80.7494 10.3112 80.197 9.53378C79.6445 8.75635 78.8682 8.16573 77.9715 7.84066C76.6756 7.31794 74.5217 6.85778 73.4448 6.54505C72.8997 6.38421 71.0854 6.01787 71.0854 4.9099C71.0854 3.49367 73.4225 3.67684 73.0829 3.67684C74.1374 3.66791 75.3529 4.2621 75.3529 5.56217Z" fill="white"/>
<path d="M81.9518 0.505144H95V4.99509H87.1666V7.98839H94.151V12.2773H87.1398V17.5178H81.925L81.9518 0.505144Z" fill="white"/>
</svg>
