<svg width="123" height="13" viewBox="0 0 123 13" fill="none" xmlns="http://www.w3.org/2000/svg">
<path d="M117.981 10.6167C117.981 9.98298 118.378 9.74419 119.509 9.74419H121.472C122.622 9.74419 123 9.96461 123 10.6167V12.1229C123 12.7566 122.603 12.9954 121.472 12.9954H119.509C118.354 12.9954 117.981 12.775 117.981 12.1229V10.6167Z" fill="white"/>
<path d="M57.3476 12.9956C49.9534 12.9956 47.6968 11.1036 47.6968 8.65606V0H52.5412V8.17849C52.5412 10.1714 54.6984 10.7271 57.5747 10.7271C59.0829 10.7456 60.591 10.6858 62.0926 10.548V0H66.9417V12.4399C63.7605 12.8381 60.555 13.0237 57.3476 12.9956Z" fill="white"/>
<path d="M14.3958 12.1828V7.14068H4.84906V12.1828H0V0H4.84906V4.9824H14.3958V0H19.2448V12.1828H14.3958Z" fill="white"/>
<path d="M77.266 2.42002H90.3608V0H76.2583C72.4406 0 71.1254 0.629114 71.1254 2.47972V12.1828H75.9745V7.0718H90.3608V4.89975H75.9745V3.16394C75.9745 2.72769 76.2394 2.42002 77.266 2.42002Z" fill="white"/>
<path d="M99.8766 2.43839C98.85 2.43839 98.5614 2.74606 98.5614 3.18231V4.95485H112.962V7.05343H98.5614V9.00047C98.5614 9.43672 98.8311 9.74439 99.8766 9.74439H112.962V12.1828H98.8737C95.0512 12.1828 93.7408 11.5537 93.7408 9.70306V2.47972C93.7408 0.642891 95.0512 0 98.8737 0H112.962V2.43839H99.8766Z" fill="white"/>
<path d="M33.2572 10.9062C31.9134 10.924 30.5708 10.8241 29.2455 10.6077C28.5501 10.5067 28.2615 10.2495 28.2615 9.68928V8.21982C28.2615 7.64121 28.569 7.40243 29.2455 7.3014C30.5708 7.085 31.9134 6.9851 33.2572 7.00292H37.7988V10.7455C36.8999 10.8465 35.088 10.9062 33.2572 10.9062ZM33.2572 4.87678C30.6329 4.8549 28.0116 5.05464 25.423 5.47375C24.0038 5.68958 23.4266 6.19012 23.4266 7.34273V10.525C23.4266 11.6822 24.0227 12.1782 25.423 12.3986C28.0145 12.7948 30.6338 12.9944 33.2572 12.9956C36.4065 13.033 39.554 12.8334 42.6715 12.3986V4.22012C42.6715 0.238788 41.0914 0 35.703 0H24.9074V2.19042H35.58C37.5953 2.19042 37.7609 2.72769 37.7609 3.89867V4.87678H33.2572Z" fill="white"/>
</svg>
