<svg width="154" height="37" viewBox="0 0 154 37" fill="none" xmlns="http://www.w3.org/2000/svg">
<path d="M13.4967 12.6572H8.78516V29.4383H13.4967V12.6572Z" fill="white"/>
<path d="M18.3387 14.4071C19.7909 13.0042 21.8078 12.3027 24.3733 12.3027C26.9388 12.3027 28.9396 13.0042 30.3837 14.4071C31.8278 15.81 32.5539 17.6446 32.5539 19.9032V29.4307H27.8505V20.2577C27.8505 18.9936 27.56 18.0146 26.9711 17.3132C26.3822 16.6117 25.5189 16.2571 24.3733 16.2571C23.2277 16.2571 22.3645 16.6117 21.7755 17.3132C21.1866 18.0146 20.8961 18.9936 20.8961 20.2577V29.4307H16.1523V19.9032C16.1523 17.6446 16.8784 15.81 18.3387 14.4071Z" fill="white"/>
<path d="M45.162 29.4377C44.2423 29.6304 43.3549 29.7229 42.5078 29.7229C40.2408 29.7229 38.4255 29.0986 37.0702 27.8498C35.7148 26.6011 35.0371 24.7742 35.0371 22.3692V7.26855H39.7809V12.6567H45.0491V16.3721H39.7809V21.9067C39.7809 23.3096 40.0713 24.2963 40.6603 24.8667C41.2492 25.4371 42.3222 25.7223 43.8954 25.7223L45.1701 25.6838V29.43L45.162 29.4377Z" fill="white"/>
<path d="M50.7393 22.5858C51.0136 23.7035 51.546 24.5668 52.3447 25.1758C53.1434 25.7847 54.1116 26.0853 55.2572 26.0853C56.2737 26.0853 57.0966 25.9466 57.7259 25.6768C58.3471 25.407 58.8312 24.9676 59.1781 24.3741H63.5507C63.0263 26.1393 62.0098 27.4883 60.485 28.4287C58.9683 29.3691 57.258 29.8393 55.3701 29.8393C53.5791 29.8393 51.9898 29.4616 50.6102 28.7139C49.2306 27.9662 48.1576 26.9255 47.3993 25.592C46.6409 24.2585 46.2617 22.7476 46.2617 21.0595C46.2617 19.3714 46.649 17.8914 47.4235 16.5578C48.198 15.2243 49.271 14.1837 50.6344 13.436C52.0059 12.6883 53.5468 12.3105 55.2652 12.3105C56.9837 12.3105 58.4439 12.6883 59.7831 13.4514C61.1304 14.2145 62.1792 15.2628 62.9376 16.5964C63.696 17.9299 64.0751 19.4176 64.0751 21.0595C64.0751 21.653 64.0509 22.1618 64.0025 22.5935H50.7393V22.5858ZM50.6989 19.4408H59.6299C59.4846 18.4618 59.0006 17.6524 58.1938 17.0126C57.387 16.3728 56.4108 16.0491 55.2572 16.0491C54.1035 16.0491 53.1031 16.3574 52.3044 16.9741C51.5057 17.5908 50.9732 18.4155 50.6989 19.4408Z" fill="white"/>
<path d="M68.1629 14.4071C69.6151 13.0042 71.632 12.3027 74.1975 12.3027C76.763 12.3027 78.7638 13.0042 80.2079 14.4071C81.652 15.81 82.3781 17.6446 82.3781 19.9032V29.4307H77.6747V20.2577C77.6747 18.9936 77.3842 18.0146 76.7953 17.3132C76.2064 16.6117 75.3431 16.2571 74.1975 16.2571C73.0519 16.2571 72.1887 16.6117 71.5997 17.3132C71.0108 18.0146 70.7204 18.9936 70.7204 20.2577V29.4307H65.9766V19.9032C65.9766 17.6446 66.7027 15.81 68.1629 14.4071Z" fill="white"/>
<path d="M84.0594 24.4049H88.5772C88.6741 25.0216 88.9806 25.4918 89.4889 25.8155C89.9972 26.1393 90.6022 26.3012 91.2961 26.3012C91.9899 26.3012 92.4981 26.1701 92.8854 25.908C93.2726 25.646 93.4663 25.2991 93.4663 24.8751C93.4663 24.3972 93.2242 24.0272 92.7402 23.7651C92.2561 23.503 91.4735 23.2333 90.4086 22.948C89.2146 22.6166 88.2142 22.2697 87.4155 21.9151C86.6168 21.5605 85.9311 21.0133 85.3583 20.2733C84.7854 19.5333 84.495 18.562 84.495 17.3441C84.495 16.396 84.7612 15.5326 85.2776 14.7772C85.802 14.0141 86.5523 13.4128 87.5365 12.9735C88.5208 12.5341 89.6745 12.3105 90.9895 12.3105C92.8854 12.3105 94.4263 12.773 95.6203 13.7058C96.8143 14.6308 97.4759 15.9103 97.5969 17.5291H93.1516C93.0548 17.028 92.8047 16.6272 92.4094 16.3189C92.0141 16.0105 91.4977 15.8564 90.8765 15.8564C90.2553 15.8564 89.7955 15.9951 89.4163 16.2803C89.0452 16.5655 88.8516 16.9201 88.8516 17.3518C88.8516 17.8066 89.0855 18.1458 89.5615 18.3847C90.0375 18.6237 90.8201 18.9089 91.9173 19.2403C93.1355 19.5949 94.152 19.9572 94.9588 20.3118C95.7655 20.6664 96.4674 21.2137 97.0483 21.9537C97.6372 22.6937 97.9277 23.6649 97.9277 24.8828C97.9277 25.8618 97.6292 26.7174 97.0322 27.4728C96.4352 28.2205 95.6284 28.8064 94.6038 29.2226C93.5792 29.6389 92.4739 29.847 91.2799 29.847C89.263 29.847 87.5849 29.3383 86.2376 28.3285C84.8903 27.3187 84.1562 26.016 84.0352 24.4203" fill="white"/>
<path d="M103.482 22.5858C103.756 23.7035 104.288 24.5668 105.087 25.1758C105.886 25.7847 106.854 26.0853 108 26.0853C109.024 26.0853 109.839 25.9466 110.46 25.6768C111.081 25.407 111.566 24.9676 111.92 24.3741H116.293C115.769 26.1393 114.752 27.4883 113.227 28.4287C111.711 29.3691 110 29.8393 108.113 29.8393C106.322 29.8393 104.732 29.4616 103.345 28.7139C101.965 27.9662 100.892 26.9255 100.134 25.592C99.3753 24.2585 98.9961 22.7476 98.9961 21.0595C98.9961 19.3714 99.3833 17.8914 100.15 16.5578C100.924 15.2243 101.997 14.1837 103.361 13.436C104.732 12.6883 106.273 12.3105 107.992 12.3105C109.71 12.3105 111.162 12.6883 112.509 13.4514C113.857 14.2145 114.906 15.2628 115.664 16.5964C116.422 17.9299 116.801 19.4176 116.801 21.0595C116.801 21.653 116.777 22.1618 116.729 22.5935H103.466L103.482 22.5858ZM103.449 19.4408H112.38C112.235 18.4618 111.751 17.6524 110.944 17.0126C110.129 16.3728 109.153 16.0491 108.008 16.0491C106.862 16.0491 105.854 16.3574 105.055 16.9741C104.256 17.5908 103.724 18.4155 103.449 19.4408Z" fill="white"/>
<path d="M139.193 22.5858C139.467 23.7035 139.999 24.5668 140.798 25.1758C141.597 25.7847 142.565 26.0853 143.711 26.0853C144.727 26.0853 145.55 25.9466 146.179 25.6768C146.8 25.407 147.285 24.9676 147.631 24.3741H152.004C151.48 26.1393 150.463 27.4883 148.938 28.4287C147.422 29.3691 145.711 29.8393 143.824 29.8393C142.032 29.8393 140.443 29.4616 139.056 28.7139C137.676 27.9662 136.603 26.9255 135.845 25.592C135.086 24.2585 134.707 22.7476 134.707 21.0595C134.707 19.3714 135.094 17.8914 135.869 16.5578C136.643 15.2243 137.708 14.1837 139.08 13.436C140.451 12.6883 141.992 12.3105 143.711 12.3105C145.429 12.3105 146.889 12.6883 148.228 13.4514C149.576 14.2145 150.625 15.2628 151.383 16.5964C152.141 17.9299 152.52 19.4176 152.52 21.0595C152.52 21.653 152.496 22.1618 152.448 22.5935H139.185L139.193 22.5858ZM139.152 19.4408H148.083C147.938 18.4618 147.454 17.6524 146.647 17.0126C145.84 16.3728 144.864 16.0491 143.719 16.0491C142.573 16.0491 141.565 16.3574 140.766 16.9741C139.967 17.5908 139.435 18.4155 139.16 19.4408" fill="white"/>
<path d="M130.017 12.6572L125.854 24.4587H125.773L121.667 12.6572H116.52L123.353 29.4691L120.521 36.5068H125.41L135.011 12.6572H130.017Z" fill="white"/>
<path d="M13.4886 0.493164C6.45359 0.493164 0.757812 5.94296 0.757812 12.6569H5.5016C5.5016 8.44046 9.07558 5.02567 13.4886 5.02567V0.493164Z" fill="white"/>
</svg>
