<svg width="110" height="20" viewBox="0 0 110 20" fill="none" xmlns="http://www.w3.org/2000/svg">
<path d="M74.0802 3.81267C72.9813 4.7741 71.9267 5.70061 70.8564 6.63797C70.4703 6.09566 70.0307 5.62651 69.4985 5.24515C66.7458 3.27178 62.4153 4.08218 61.0057 7.71032C60.2135 9.7493 60.4204 11.7312 61.7034 13.537C62.6461 14.8633 63.9821 15.5731 65.6119 15.7473C66.8514 15.8799 68.0053 15.6383 69.0412 14.9449C70.0924 14.2416 70.7852 13.2642 71.177 12.0752C71.187 12.0455 71.1945 12.0151 71.1995 11.9841C71.198 11.962 71.1937 11.9401 71.1866 11.919H63.7326V8.06761H75.5705C75.6078 8.36497 75.6594 8.67128 75.6824 8.97996C75.8257 10.8637 75.6021 12.6973 74.8409 14.4432C73.7353 16.9782 71.8785 18.7142 69.1926 19.5468C68.3706 19.7937 67.519 19.9316 66.6602 19.9569C64.8923 20.0249 63.208 19.6935 61.6384 18.885C59.1059 17.58 57.3801 15.5764 56.552 12.8724C55.777 10.3431 55.9868 7.85711 57.2019 5.50238C58.535 2.91779 60.6292 1.1705 63.4737 0.401638C67.0998 -0.579147 70.2888 0.313377 73.0596 2.76817C73.4113 3.0811 73.7214 3.44358 74.0802 3.81267Z" fill="white"/>
<path d="M109.831 11.9119H98.0222V8.0591H105.507C105.423 7.83019 105.363 7.63432 105.28 7.44552C104.581 5.86485 103.446 4.73492 101.716 4.34458C98.9993 3.731 96.1793 5.07002 95.2021 7.9142C94.4926 9.98055 94.7544 11.9535 96.11 13.713C97.0599 14.9439 98.3605 15.5986 99.9186 15.7487C101.439 15.895 102.808 15.5061 103.992 14.5564C104.413 14.2185 104.764 13.7947 105.174 13.384L108.327 16.147C107.723 16.9047 107.009 17.57 106.208 18.1213C104.763 19.1257 103.166 19.7558 101.403 19.9206C99.5875 20.09 97.8339 19.803 96.1855 19.0172C93.6588 17.8136 91.8851 15.9073 90.961 13.2915C90.0627 10.7489 90.187 8.21863 91.338 5.76951C92.3491 3.6182 93.9603 2.02619 96.121 0.991132C97.7991 0.188758 99.5761 -0.0982093 101.431 0.0556578C103.225 0.204333 104.859 0.774491 106.29 1.86572C107.803 3.01925 108.813 4.52724 109.41 6.3071C110.013 8.10677 110.14 9.94987 109.853 11.8222C109.848 11.8525 109.84 11.8825 109.831 11.9119Z" fill="white"/>
<path d="M20.7523 0.368592V1.92189C20.7523 5.14712 20.7523 8.37235 20.7523 11.5976C20.7523 12.3178 20.8636 13.0201 21.1866 13.6781C21.632 14.5843 22.3587 15.145 23.3392 15.3905C24.2819 15.6264 25.2194 15.6 26.1268 15.246C27.2869 14.7929 27.909 13.8947 28.146 12.72C28.2171 12.3497 28.2518 11.9735 28.2497 11.5966C28.2602 7.94662 28.2633 4.29661 28.2588 0.646591C28.2588 0.415319 28.3276 0.3634 28.5531 0.3634C29.9866 0.373312 31.42 0.368592 32.8535 0.368592H33.1134C33.1182 0.468181 33.1258 0.55125 33.1258 0.633848C33.1258 4.27568 33.1258 7.91736 33.1258 11.5589C33.1258 12.998 32.8917 14.3908 32.2428 15.6916C31.2394 17.7051 29.5996 18.9955 27.4288 19.5793C25.0775 20.2113 22.7309 20.1485 20.4704 19.18C18.3556 18.2738 16.9866 16.6851 16.3057 14.5126C15.9976 13.528 15.8867 12.518 15.8877 11.4919C15.8899 7.88149 15.8881 4.27128 15.8824 0.661223C15.8824 0.417679 15.9493 0.361984 16.1882 0.363872C17.6135 0.3752 19.0389 0.369536 20.4642 0.369536L20.7523 0.368592Z" fill="white"/>
<path d="M53.5624 19.5991H48.7006V19.2961C48.6968 15.6461 48.6923 11.9961 48.6872 8.34608C48.6872 7.76223 48.6089 7.18688 48.4005 6.6356C47.9992 5.57364 47.2437 4.88407 46.1347 4.59852C45.1203 4.33704 44.1098 4.37385 43.1474 4.80619C42.0786 5.28667 41.508 6.16267 41.2964 7.27609C41.2271 7.64679 41.1921 8.02293 41.1917 8.39988C41.1834 11.6953 41.1819 14.991 41.1869 18.287V19.5944H36.3252V19.3367C36.3252 15.5929 36.3099 11.8487 36.3314 8.10347C36.3433 6.08763 36.9138 4.24406 38.2718 2.69075C39.3994 1.40035 40.8477 0.636204 42.5129 0.272775C44.2478 -0.104813 45.9928 -0.104813 47.7106 0.363396C50.7724 1.20117 52.6665 3.1684 53.3206 6.24149C53.4912 7.04151 53.5466 7.87739 53.5519 8.69582C53.5762 12.2197 53.5624 15.7435 53.5624 19.2683V19.5991Z" fill="white"/>
<path d="M89.7665 15.3107V19.5968H78.2846V19.3499C78.2846 14.8208 78.2846 10.2914 78.2846 5.76196C78.2846 4.51167 78.502 3.30763 79.1824 2.22207C80.0339 0.866057 81.2657 0.124569 82.884 0.0235642C82.94 0.0202603 82.9959 0.0235642 83.0513 0.0235642C83.0817 0.0272552 83.1119 0.032772 83.1416 0.0400837V15.3107H89.7665Z" fill="white"/>
<path d="M7.41933 19.9248V0.368589H7.65824C9.11462 0.368589 10.5729 0.371893 12.0283 0.364341C12.2271 0.364341 12.2821 0.419563 12.2821 0.615437C12.2768 5.19982 12.2864 9.78374 12.2725 14.3681C12.2687 15.7105 11.9729 16.9862 11.1501 18.0968C10.2824 19.2654 9.10984 19.8823 7.64533 19.9569C7.59752 19.9587 7.54964 19.9574 7.50199 19.9531C7.47366 19.9461 7.446 19.9366 7.41933 19.9248Z" fill="white"/>
<path d="M0.000381766 17.2029C0.0266617 15.6307 1.28332 14.4139 2.86011 14.4337C4.41206 14.4531 5.67923 15.7388 5.63623 17.2657C5.62811 17.6374 5.54495 18.0039 5.39163 18.3435C5.23831 18.6831 5.01791 18.9891 4.74335 19.2436C4.46879 19.498 4.14558 19.6957 3.79266 19.8252C3.43975 19.9546 3.06423 20.0132 2.6881 19.9975C1.21308 19.9432 -0.0249425 18.6844 0.000381766 17.2029Z" fill="white"/>
</svg>
