<svg width="139" height="26" viewBox="0 0 139 26" fill="none" xmlns="http://www.w3.org/2000/svg">
<path d="M138.486 0H113.514C113.23 0 113 0.230155 113 0.514067V25.4859C113 25.7698 113.23 26 113.514 26H138.486C138.77 26 139 25.7698 139 25.4859V0.514067C139 0.230155 138.77 0 138.486 0Z" fill="white"/>
<path d="M125.374 9.2951V14.9365H128.709C128.786 14.9365 128.86 14.9675 128.915 15.0229C128.969 15.0782 129 15.1533 129 15.2316V16.7049C129 16.7832 128.969 16.8582 128.915 16.9136C128.86 16.9689 128.786 17 128.709 17H123.286C123.21 16.9989 123.137 16.9673 123.084 16.9121C123.03 16.8568 123 16.7824 123 16.7049V9.2951C123.001 9.21664 123.032 9.14158 123.087 9.0863C123.141 9.03102 123.216 9 123.293 9H125.081C125.158 9 125.232 9.03109 125.287 9.08643C125.341 9.14177 125.372 9.21683 125.372 9.2951" fill="black"/>
<path d="M110.486 0H85.5141C85.2302 0 85 0.230155 85 0.514067V25.4859C85 25.7698 85.2302 26 85.5141 26H110.486C110.77 26 111 25.7698 111 25.4859V0.514067C111 0.230155 110.77 0 110.486 0Z" fill="white"/>
<path d="M99.2122 9L102.982 16.744C102.996 16.7712 103.002 16.8011 103 16.831C102.998 16.8609 102.987 16.8898 102.97 16.9151C102.953 16.9404 102.93 16.9612 102.902 16.9757C102.874 16.9901 102.843 16.9978 102.811 16.9979H100.531C100.456 16.9991 100.384 16.9793 100.322 16.9409C100.26 16.9025 100.212 16.8474 100.184 16.7827L99.8303 15.9825H96.1811L95.8139 16.7849C95.7852 16.8487 95.7373 16.9031 95.676 16.9413C95.6148 16.9796 95.5429 17 95.4695 17H93.1887C93.157 16.9999 93.1257 16.9923 93.0979 16.9778C93.0701 16.9633 93.0466 16.9425 93.0295 16.9172C93.0125 16.8919 93.0025 16.863 93.0004 16.8331C92.9983 16.8032 93.0043 16.7733 93.0177 16.7462L96.8334 9.00215L99.2122 9ZM98.8838 14.0186L97.9989 11.8094L97.1048 14.0186H98.8838Z" fill="black"/>
<path d="M81.9864 0.763174C81.9852 0.560744 81.9042 0.366978 81.7609 0.224048C81.6175 0.0811182 81.4236 0.000593631 81.2212 0L56.7584 0C56.557 0.0017871 56.3645 0.0829094 56.2225 0.225775C56.0805 0.36864 56.0006 0.561731 56 0.763174V25.2346C56.0006 25.437 56.0811 25.631 56.224 25.7744C56.3669 25.9177 56.5605 25.9988 56.7629 26H74.9822L82 18.9797L81.9864 0.763174Z" fill="white"/>
<path opacity="0.3" d="M75.4653 19.2532L69 26H75.2898L82 19L75.4653 19.2532Z" fill="white"/>
<path d="M82 19H75.762C75.5601 19.0006 75.3666 19.0811 75.2238 19.2238C75.0811 19.3666 75.0006 19.5601 75 19.762V26L82 19Z" fill="#676774"/>
<path d="M69.3154 9C69.7077 9.00891 70.0983 9.05286 70.482 9.13125C70.8922 9.21367 71.2807 9.37345 71.6247 9.60112C71.9687 9.8288 72.261 10.1197 72.4845 10.4567C73.2275 11.5906 73.0825 13.2539 71.7845 14.0909C71.6463 14.1791 71.5127 14.2738 71.3473 14.3835C71.3858 14.4481 72.566 16.191 72.976 16.7956C72.9903 16.8152 72.9985 16.8382 72.9998 16.862C73.0011 16.8858 72.9955 16.9094 72.9836 16.9304C72.9716 16.9513 72.9538 16.9687 72.9321 16.9806C72.9103 16.9925 72.8856 16.9985 72.8605 16.9978H70.2713C70.22 16.9978 70.1696 16.9853 70.1248 16.9616C70.08 16.9379 70.0423 16.9037 70.0153 16.8623L68.6403 14.8268H67.5462V16.7009C67.5471 16.7399 67.5398 16.7786 67.5247 16.8149C67.5096 16.8511 67.4871 16.8842 67.4584 16.912C67.4297 16.9399 67.3954 16.962 67.3576 16.9771C67.3198 16.9922 67.2792 17 67.2381 17H65.3058C65.2657 17 65.2259 16.9925 65.1888 16.9779C65.1517 16.9633 65.118 16.9419 65.0896 16.9149C65.0612 16.8879 65.0387 16.8559 65.0233 16.8207C65.0079 16.7854 65 16.7477 65 16.7095V9.29693C64.9994 9.25833 65.0069 9.21999 65.022 9.18412C65.037 9.14826 65.0594 9.11559 65.0879 9.08799C65.1163 9.06039 65.1502 9.0384 65.1876 9.0233C65.225 9.0082 65.2652 9.00028 65.3058 9H69.3154ZM67.562 12.8731H69.3335C69.4943 12.8708 69.6527 12.8356 69.7979 12.7698C69.9564 12.6944 70.0887 12.5772 70.1787 12.4321C70.2687 12.2871 70.3127 12.1204 70.3053 11.9521C70.3168 11.7951 70.2781 11.6385 70.1945 11.5026C70.1109 11.3667 69.9861 11.2579 69.8364 11.1904C69.6616 11.0979 69.4632 11.0532 69.2633 11.0613H67.5711C67.5711 11.6746 67.5711 12.8752 67.5711 12.8752" fill="black"/>
<path d="M53.4859 0H28.5141C28.2302 0 28 0.230155 28 0.514067V25.4859C28 25.7698 28.2302 26 28.5141 26H53.4859C53.7698 26 54 25.7698 54 25.4859V0.514067C54 0.230155 53.7698 0 53.4859 0Z" fill="white"/>
<path d="M45.6889 9.00004C45.7296 8.99941 45.7699 9.00712 45.8076 9.02273C45.8453 9.03834 45.8797 9.06153 45.9086 9.09096C45.9376 9.12038 45.9605 9.15546 45.9762 9.19414C45.9919 9.23281 46 9.27433 46 9.31626V13.9241C46.0015 14.9917 45.595 16.0168 44.8687 16.7772C44.2353 17.3958 43.4291 17.7926 42.5646 17.9113C42.0363 18.0014 41.4991 18.023 40.9655 17.9755C39.8481 17.8875 38.825 17.538 38.0324 16.663C37.5145 16.0912 37.1812 15.3677 37.0785 14.5922C37.0237 14.1706 36.9975 13.7455 37.0002 13.3201C37.0002 12.2906 37.0002 10.1318 37.0002 9.32101C37.0002 9.27928 37.0082 9.23797 37.0237 9.19945C37.0393 9.16093 37.0621 9.12596 37.0908 9.09657C37.1195 9.06717 37.1535 9.04393 37.191 9.02818C37.2284 9.01242 37.2685 9.00448 37.3089 9.00479H39.2628C39.3036 9.00384 39.3441 9.01123 39.382 9.02652C39.42 9.04181 39.4546 9.0647 39.484 9.09388C39.5133 9.12305 39.5368 9.15793 39.553 9.19651C39.5692 9.23508 39.5779 9.27659 39.5785 9.31863C39.5785 10.1246 39.5785 12.2574 39.5785 13.275C39.5704 13.7393 39.6486 14.201 39.8089 14.635C39.9465 14.9997 40.2043 15.3028 40.537 15.4909C40.9882 15.7235 41.5034 15.7882 41.9955 15.674C42.3056 15.6292 42.5949 15.4874 42.8244 15.2676C43.0539 15.0477 43.2125 14.7605 43.2789 14.4447C43.3394 14.2024 43.3703 13.9532 43.371 13.7029C43.371 12.5712 43.371 10.1769 43.371 9.31626C43.3722 9.23196 43.4055 9.15153 43.4637 9.09236C43.5219 9.03319 43.6004 9.00003 43.6821 9.00004H45.6889Z" fill="black"/>
<path d="M25.4859 0H0.514067C0.230155 0 0 0.230155 0 0.514067V25.4859C0 25.7698 0.230155 26 0.514067 26H25.4859C25.7698 26 26 25.7698 26 25.4859V0.514067C26 0.230155 25.7698 0 25.4859 0Z" fill="white"/>
<path d="M18 9.26681V16.716C17.9994 16.7866 17.9703 16.8541 17.9188 16.904C17.8674 16.9539 17.7978 16.9822 17.7251 16.9828H15.7295C15.6566 16.9828 15.5866 16.9547 15.5351 16.9046C15.4835 16.8546 15.4545 16.7867 15.4545 16.716C15.4545 15.8424 15.4545 13.1119 15.4545 13.0043L13.0044 16.2792C12.8404 16.064 10.6053 13.0258 10.4856 12.8365C10.4856 12.9763 10.4856 15.8488 10.4856 16.7353C10.485 16.8057 10.4558 16.873 10.4043 16.9226C10.3528 16.9722 10.2832 17 10.2106 17H8.27494C8.20203 17 8.13209 16.9719 8.08053 16.9219C8.02897 16.8718 8 16.804 8 16.7332V9.27327C8.00058 9.20268 8.02973 9.13514 8.08117 9.08522C8.13261 9.03531 8.2022 9.00702 8.27494 9.00645H10.0488C10.092 9.00687 10.1345 9.017 10.1729 9.03604C10.2114 9.05508 10.2448 9.08251 10.2705 9.11619L12.9823 12.7375L15.7295 9.10974C15.7552 9.07606 15.7886 9.04862 15.8271 9.02958C15.8655 9.01054 15.908 9.00042 15.9512 9H17.7251C17.7978 9.00056 17.8674 9.02885 17.9188 9.07877C17.9703 9.12868 17.9994 9.19622 18 9.26681" fill="black"/>
</svg>
