<svg width="94" height="32" viewBox="0 0 94 32" fill="none" xmlns="http://www.w3.org/2000/svg">
<path d="M0.383072 0.00230964C4.42006 -0.0712311 6.70966 1.61138 7.16934 5.05603C8.93147 1.68786 11.5776 0.00230964 14.1855 0.00230964C24.1129 0.00230964 21.3518 14.2751 11.2387 16.8402C13.1482 21.3968 19.5514 28.745 27.1097 28.592L26.6883 31.9984C20.0936 32.1131 11.5452 26.0651 7.53473 17.2255L6.2706 17.1108L4.62044 24.8032H0.727837L3.75705 11.2187C4.08837 9.90297 4.28095 8.55623 4.33166 7.20047C4.33166 4.59713 3.18245 3.14397 0 3.22045L0.383072 0.00230964ZM8.28025 14.2015C15.7561 14.2015 19.7724 3.29693 14.2621 3.29693C10.7732 3.29693 8.0121 9.12136 6.82458 14.0486C7.30536 14.1354 7.79191 14.1865 8.28025 14.2015ZM26.0695 9.87735C29.0575 9.87735 30.9404 11.4099 30.9404 14.2398C30.9404 18.6052 26.0342 20.479 22.0473 19.217C22.7368 22.0851 26.0725 22.2763 30.2509 21.3968L29.9061 24.4972C23.5737 25.9122 18.5171 24.0383 18.5171 17.8756C18.5171 13.6279 21.8056 9.87735 26.0695 9.87735ZM27.4869 14.2015C27.4869 11.9071 22.6955 12.4807 22.1209 16.7284C24.5726 17.455 27.4869 16.6519 27.4869 14.2015ZM34.8537 10.2598H38.3367L37.9536 12.0983C39.0645 10.4127 40.2903 9.87735 41.7077 9.87735C43.0514 9.87735 44.2389 10.6834 44.7369 12.2512C46.004 10.5275 47.498 9.87735 49.0303 9.87735C51.3317 9.87735 53.0938 11.9071 52.251 15.8489L50.3887 24.612H46.6935L48.5323 16.2695C49.0686 13.8956 48.6472 12.9396 47.6483 12.9396C46.5374 12.9396 45.3852 14.278 44.236 18.3345L42.8952 24.612H39.2177L41.0565 16.2695C41.5928 13.8956 41.1714 12.9396 40.1725 12.9396C39.0999 12.9396 37.6413 15.237 36.7985 18.1433L35.3811 24.6149H31.7419L34.8537 10.2598ZM56.8184 10.2598H60.4989L57.3488 24.612H53.7097L56.8184 10.2598ZM59.2288 3.02924C59.6746 3.04439 60.1059 3.19068 60.4687 3.44976C60.8314 3.70883 61.1094 4.06913 61.2677 4.4854C61.4259 4.90167 61.4575 5.35534 61.3583 5.78945C61.2591 6.22355 61.0337 6.61871 60.7102 6.92531C60.3868 7.23191 59.9799 7.43627 59.5405 7.51273C59.1011 7.58918 58.6488 7.53431 58.2406 7.35502C57.8323 7.17573 57.4862 6.88 57.2458 6.50499C57.0054 6.12998 56.8813 5.69241 56.8892 5.24723C56.8933 4.94713 56.9575 4.65088 57.078 4.37591C57.1985 4.10095 57.3729 3.85283 57.5909 3.64616C57.8089 3.43949 58.0661 3.27844 58.3474 3.17249C58.6287 3.06654 58.9284 3.01784 59.2288 3.02924ZM64.2117 10.2598H67.7006L67.0877 13.1308C68.3902 10.6069 69.8105 9.87735 71.5343 9.87735C73.9889 9.87735 75.6744 11.9071 74.9083 15.8489L73.2198 24.612H69.5777L71.2278 16.2695C71.6875 13.8956 71.3103 12.9455 70.3085 12.9455C69.0031 12.9455 67.3618 14.8605 66.1831 18.1492L64.7628 24.6208H61.1059L64.2117 10.2598ZM83.9812 9.87735C84.627 9.85161 85.2672 10.0065 85.8295 10.3246C86.3918 10.6427 86.8539 11.1113 87.1636 11.6776L89.4267 1.30545H92.8744L89.4385 17.6521C88.8492 20.4466 90.0278 21.8998 94 21.8998L93.3871 25.0061C90.0897 25.0061 87.7883 24.4325 86.7924 22.0645C85.9496 23.7501 83.7631 25.0061 81.7329 25.0061C78.627 25.0061 76.7087 22.2881 76.9769 18.5346C77.245 14.278 79.6613 9.87735 83.9812 9.87735ZM82.3723 21.8939C84.435 21.8939 86.091 19.0258 86.091 15.6194C86.091 13.9721 85.3603 12.8631 84.2493 12.8631C82.1424 12.8631 80.3774 15.6959 80.3774 18.9876C80.3891 20.8614 81.1936 21.8939 82.3841 21.8939H82.3723Z" fill="white"/>
</svg>
