<svg width="116" height="35" viewBox="0 0 116 35" fill="none" xmlns="http://www.w3.org/2000/svg">
<path d="M17.3956 0C7.78849 0 0 7.83515 0 17.5001C0 27.1655 7.78849 35 17.3956 35C27.0038 35 34.7915 27.1655 34.7915 17.5001C34.7915 7.83578 27.0038 0.000835901 17.3954 0.000835901L17.3956 0V0ZM25.3732 25.2402C25.0616 25.7543 24.3927 25.9173 23.8817 25.6017C19.7974 23.0919 14.6557 22.5235 8.60049 23.9153C8.01699 24.049 7.43536 23.6812 7.30241 23.094C7.16884 22.5068 7.53299 21.9216 8.11795 21.7879C14.7444 20.2649 20.4284 20.9206 25.0138 23.7397C25.5248 24.0553 25.6868 24.7261 25.3732 25.2402V25.2402ZM27.5023 20.4751C27.1097 21.1171 26.2747 21.3198 25.637 20.9248C20.961 18.0334 13.8333 17.196 8.30262 18.885C7.58534 19.103 6.82776 18.6963 6.61006 17.9759C6.39402 17.2543 6.79847 16.4937 7.5145 16.2742C13.8321 14.3458 21.686 15.2799 27.0557 18.5995C27.6935 18.9945 27.8949 19.8346 27.5023 20.4753V20.4751ZM27.6851 15.5132C22.0786 12.1631 12.8286 11.855 7.47566 13.4894C6.61608 13.7517 5.70707 13.2635 5.44658 12.3988C5.1861 11.5336 5.67093 10.6198 6.53112 10.3569C12.6759 8.48026 22.8908 8.84284 29.3457 12.6978C30.1205 13.1595 30.374 14.164 29.9149 14.9408C29.4579 15.7186 28.4566 15.975 27.686 15.5132H27.6851ZM47.3277 16.1551C44.324 15.4346 43.7902 14.9289 43.7902 13.8662C43.7902 12.8623 44.7291 12.1867 46.1271 12.1867C47.4815 12.1867 48.8234 12.6997 50.2318 13.7559C50.2733 13.7878 50.3273 13.8006 50.3792 13.7922C50.4333 13.7843 50.479 13.7552 50.5101 13.7116L51.9767 11.6318C52.0369 11.5462 52.0203 11.4281 51.9393 11.3627C50.2629 10.01 48.3768 9.35232 46.1707 9.35232C42.9281 9.35232 40.6618 11.3102 40.6618 14.1116C40.6618 17.1156 42.6165 18.1793 45.9941 19.0003C48.867 19.6664 49.3531 20.2243 49.3531 21.2216C49.3531 22.327 48.3726 23.0146 46.7939 23.0146C45.0407 23.0146 43.6094 22.419 42.01 21.0272C41.9705 20.9917 41.9165 20.9771 41.8666 20.9791C41.8126 20.9833 41.7648 21.0084 41.7316 21.0481L40.0864 23.0167C40.0179 23.1003 40.0262 23.2215 40.1051 23.2925C41.9663 24.9643 44.2555 25.8462 46.7274 25.8462C50.2214 25.8462 52.4794 23.9257 52.4794 20.952C52.4856 18.4428 50.992 17.0531 47.334 16.1578L47.3277 16.1551V16.1551ZM60.3854 13.1751C58.8711 13.1751 57.6289 13.7753 56.6027 15.0051V13.6209C56.6027 13.5116 56.5155 13.4226 56.4075 13.4226H53.7174C53.6094 13.4226 53.5222 13.5116 53.5222 13.6209V29.0018C53.5222 29.1104 53.6094 29.2003 53.7174 29.2003H56.4075C56.5155 29.2003 56.6027 29.1104 56.6027 29.0018V24.1472C57.6289 25.3029 58.8711 25.8692 60.3854 25.8692C63.2001 25.8692 66.0501 23.6896 66.0501 19.5228C66.0543 15.3552 63.2043 13.1749 60.3875 13.1749L60.3854 13.1751ZM62.9218 19.5228C62.9218 21.6437 61.6235 23.1253 59.7622 23.1253C57.9239 23.1253 56.5363 21.5768 56.5363 19.5228C56.5363 17.4685 57.9239 15.9205 59.7622 15.9205C61.5923 15.9202 62.9218 17.4349 62.9218 19.5226V19.5228ZM73.3517 13.1751C69.7269 13.1751 66.8873 15.9829 66.8873 19.5681C66.8873 23.1149 69.7082 25.8922 73.3081 25.8922C76.9454 25.8922 79.7933 23.094 79.7933 19.5228C79.7933 15.9637 76.9641 13.1755 73.3517 13.1755V13.1751V13.1751ZM73.3517 23.1462C71.424 23.1462 69.9699 21.5873 69.9699 19.5217C69.9699 17.4468 71.3741 15.9411 73.3081 15.9411C75.2482 15.9411 76.7106 17.4995 76.7106 19.5671C76.7106 21.6416 75.2981 23.1462 73.3517 23.1462V23.1462ZM87.5332 13.4226H84.5731V10.3786C84.5731 10.2695 84.4858 10.1805 84.3778 10.1805H81.6878C81.5797 10.1805 81.4904 10.2695 81.4904 10.3786V13.4226H80.1984C80.0903 13.4226 80.0031 13.5116 80.0031 13.6209V15.9462C80.0031 16.0552 80.0903 16.1445 80.1984 16.1445H81.4904V22.162C81.4904 24.5923 82.6932 25.8253 85.0675 25.8253C86.0313 25.8253 86.8311 25.6247 87.5851 25.1942C87.6474 25.1608 87.6848 25.0939 87.6848 25.0228V22.8077C87.6848 22.7408 87.6495 22.676 87.5914 22.6405C87.5332 22.6029 87.4605 22.6008 87.4002 22.6321C86.883 22.8934 86.3824 23.0146 85.8215 23.0146C84.9594 23.0146 84.5731 22.6196 84.5731 21.7377V16.1455H87.5332C87.6412 16.1455 87.7284 16.0565 87.7284 15.9472V13.6221C87.7326 13.5128 87.6454 13.4238 87.5353 13.4238L87.5332 13.4226V13.4226ZM97.8447 13.4345V13.0606C97.8447 11.9608 98.2643 11.4703 99.2032 11.4703C99.7641 11.4703 100.215 11.5823 100.72 11.7516C100.782 11.7712 100.846 11.7614 100.896 11.724C100.948 11.6866 100.977 11.6266 100.977 11.5631V9.28315C100.977 9.19601 100.923 9.1189 100.838 9.09319C100.306 8.93374 99.6249 8.77011 98.6029 8.77011C96.1206 8.77011 94.8057 10.1774 94.8057 12.8383V13.4109H93.5136C93.4056 13.4109 93.3163 13.4999 93.3163 13.609V15.9462C93.3163 16.0552 93.4056 16.1445 93.5136 16.1445H94.8057V25.4241C94.8057 25.5348 94.895 25.6226 95.003 25.6226H97.691C97.8011 25.6226 97.8883 25.5348 97.8883 25.4241V16.1451H100.4L104.247 25.4241C103.811 26.3979 103.381 26.5922 102.795 26.5922C102.321 26.5922 101.821 26.4501 101.312 26.168C101.264 26.143 101.206 26.1388 101.156 26.1534C101.104 26.1722 101.06 26.2098 101.04 26.26L100.128 28.2724C100.084 28.3686 100.121 28.4793 100.213 28.5295C101.164 29.0477 102.022 29.2692 103.084 29.2692C105.069 29.2692 106.168 28.3372 107.134 25.8337L111.8 13.7053C111.825 13.6443 111.816 13.5753 111.779 13.5212C111.744 13.4675 111.683 13.4351 111.619 13.4351H108.819C108.734 13.4351 108.659 13.4888 108.632 13.568L105.763 21.8088L102.622 13.5626C102.593 13.4859 102.521 13.4351 102.44 13.4351H97.8447V13.4345V13.4345ZM91.8664 13.4226H89.1763C89.0683 13.4226 88.979 13.5116 88.979 13.6209V25.4241C88.979 25.5348 89.0683 25.6226 89.1763 25.6226H91.8664C91.9744 25.6226 92.0637 25.5348 92.0637 25.4241V13.6217C92.0637 13.5124 91.9765 13.4234 91.8664 13.4234V13.4226ZM90.5369 8.04789C89.4713 8.04789 88.6071 8.91556 88.6071 9.9874C88.6071 11.0599 89.4713 11.9286 90.5369 11.9286C91.6025 11.9286 92.4646 11.0599 92.4646 9.9874C92.4646 8.91577 91.6005 8.04789 90.5369 8.04789ZM114.097 17.2178C113.034 17.2178 112.205 16.3578 112.205 15.3136C112.205 14.2693 113.044 13.3996 114.108 13.3996C115.171 13.3996 116 14.2593 116 15.3027C116 16.347 115.161 17.2178 114.097 17.2178ZM114.108 13.5889C113.138 13.5889 112.404 14.3642 112.404 15.3136C112.404 16.2625 113.133 17.0274 114.097 17.0274C115.067 17.0274 115.801 16.2527 115.801 15.3027C115.801 14.3538 115.071 13.5889 114.108 13.5889V13.5889ZM114.527 15.4985L115.063 16.2525H114.61L114.128 15.5608H113.715V16.2525H113.337V14.2539H114.222C114.685 14.2539 114.988 14.4915 114.988 14.8915C114.99 15.2191 114.801 15.4193 114.529 15.4985H114.527ZM114.207 14.5968H113.715V15.2289H114.207C114.452 15.2289 114.6 15.108 114.6 14.9126C114.6 14.7069 114.452 14.5968 114.207 14.5968V14.5968Z" fill="white"/>
</svg>
