<svg width="105" height="30" viewBox="0 0 105 30" fill="none" xmlns="http://www.w3.org/2000/svg">
<path d="M0 7.3031H6.24681L9.88425 16.8907L13.5689 7.3031H19.6512L10.4926 30H4.37177L6.87879 23.9857L0 7.3031Z" fill="white"/>
<path d="M25.9874 6.92143C21.2938 6.92143 18.3267 11.2581 18.3267 15.5768C18.3267 20.4366 21.5798 24.2895 25.8983 24.2895C29.1198 24.2895 30.3344 22.2674 30.3344 22.2674V23.8426H35.7828V7.3032H30.3344V8.80678C30.3344 8.80678 28.9793 6.92143 25.9874 6.92143ZM27.1463 12.2365C29.3119 12.2365 30.4294 14.002 30.4294 15.595C30.4294 17.3103 29.2322 18.9937 27.1463 18.9937C25.4175 18.9937 23.8552 17.5382 23.8552 15.668C23.8552 13.7713 25.1118 12.2365 27.1463 12.2365Z" fill="white"/>
<path d="M37.6592 23.8425V0H43.3579V8.86405C43.3579 8.86405 44.7115 6.92348 47.5464 6.92348C51.0141 6.92348 53.0458 9.58534 53.0458 13.389V23.8425H47.3887V14.821C47.3887 13.5338 46.7936 12.2902 45.4455 12.2902C44.0731 12.2902 43.3579 13.5526 43.3579 14.821V23.8425H37.6592Z" fill="white"/>
<path d="M62.7619 6.92339C57.3869 6.92339 54.1864 11.1342 54.1864 15.6456C54.1864 20.7797 58.0615 24.2895 62.7822 24.2895C67.3578 24.2895 71.3615 20.939 71.3615 15.7317C71.3615 10.0341 67.1695 6.92339 62.7619 6.92339ZM62.8132 12.2852C64.7118 12.2852 66.0255 13.9144 66.0255 15.6518C66.0255 17.1336 64.8014 18.9613 62.8132 18.9613C60.9914 18.9613 59.6242 17.4557 59.6242 15.6355C59.6242 13.8821 60.7609 12.2852 62.8132 12.2852Z" fill="white"/>
<path d="M80.8553 6.92339C75.4803 6.92339 72.2798 11.1342 72.2798 15.6456C72.2798 20.7797 76.1549 24.2895 80.8757 24.2895C85.4512 24.2895 89.455 20.939 89.455 15.7317C89.455 10.0341 85.2629 6.92339 80.8553 6.92339ZM80.9066 12.2852C82.8053 12.2852 84.1189 13.9144 84.1189 15.6518C84.1189 17.1336 82.8948 18.9613 80.9066 18.9613C79.0848 18.9613 77.7177 17.4557 77.7177 15.6355C77.7177 13.8821 78.8543 12.2852 80.9066 12.2852Z" fill="white"/>
<path d="M93.9516 24.1936C96.0416 24.1936 97.7358 22.4481 97.7358 20.295C97.7358 18.1418 96.0416 16.3963 93.9516 16.3963C91.8617 16.3963 90.1675 18.1418 90.1675 20.295C90.1675 22.4481 91.8617 24.1936 93.9516 24.1936Z" fill="white"/>
<path d="M98.9793 14.9642H92.1668L98.213 0H105L98.9793 14.9642Z" fill="white"/>
</svg>
